<svg width="32" height="32" viewBox="0 0 526 526" fill="none" xmlns="http://www.w3.org/2000/svg">
<path d="M183.16 223.659C182.396 222.814 181.592 222.033 180.78 221.291C182.806 219.522 184.666 217.513 186.455 215.138L186.518 215.066C186.613 214.954 186.739 214.811 186.636 214.643C186.589 214.572 186.494 214.492 186.305 214.54C185.903 214.635 184.91 215.664 183.176 217.465C182.049 218.637 180.89 219.841 180.015 220.614C161.611 204.871 131.904 214.643 127.482 239.801C126.103 247.628 127.711 255.926 131.928 262.638C131.928 263.013 132.306 263.38 132.716 263.18C136.255 261.53 138.336 258.294 141.229 256.046C142.947 254.866 144.846 253.463 146.872 252.953C152.192 251.606 157.781 252.228 163.219 252.642C162.486 253.503 161.777 254.38 161.075 255.265C159.767 255.416 158.537 255.903 157.442 256.612C154.226 256.923 151.026 255.887 147.968 254.938L147.865 255.185C150.403 256.325 153.185 257.664 156.031 257.736C155.81 257.943 155.605 258.158 155.408 258.382L149.583 259.091C149.371 259.115 149.394 259.442 149.599 259.442C149.694 259.442 154.383 259.482 155.518 259.482C155.652 259.521 155.802 259.506 155.936 259.426C156.062 259.37 156.149 259.274 156.204 259.155C156.661 258.565 157.197 258.015 157.796 257.553C157.891 257.529 157.978 257.505 158.056 257.465L158.119 257.441C158.119 257.441 158.119 257.433 158.119 257.425C158.269 257.345 158.38 257.242 158.411 257.106C159.026 256.708 159.688 256.397 160.382 256.182C160.208 256.405 160.035 256.62 159.861 256.851C159.854 256.859 159.846 256.875 159.838 256.883C159.617 257.162 160.051 257.505 160.263 257.234C161.682 255.624 163.156 254.061 164.669 252.563C164.693 252.547 164.701 252.515 164.717 252.491C166.506 250.618 168.334 248.72 170.502 247.325C171.062 246.991 171.897 246.52 172.496 246.704C172.26 247.142 172.015 247.581 171.763 248.019C169.808 251.239 167.389 254.221 165.127 257.21C164.953 257.417 165.261 257.688 165.442 257.497C168.082 254.731 170.455 251.726 172.52 248.497C172.788 248.099 173.048 247.692 173.3 247.27C173.395 247.11 173.497 246.967 173.592 246.807C173.71 246.624 173.647 246.401 173.513 246.21C174.482 245.412 175.507 244.671 176.587 244.081C177.359 243.683 178.423 243.18 179.314 243.276C179.338 243.276 179.361 243.276 179.385 243.276C179.503 243.292 179.621 243.332 179.732 243.372C179.755 243.38 179.787 243.388 179.811 243.396C179.826 243.396 179.834 243.412 179.85 243.42C178.25 245.588 176.469 247.668 174.648 249.725C174.593 249.765 174.538 249.805 174.482 249.836C174.474 249.844 174.459 249.852 174.451 249.86C174.348 249.932 174.293 250.036 174.277 250.147C172.212 252.475 170.108 254.779 168.2 257.146C167.964 257.449 168.437 257.816 168.665 257.513C168.681 257.497 168.697 257.473 168.713 257.457C169.635 256.285 170.675 255.161 171.692 254.029C172.685 252.929 173.726 251.797 174.766 250.649C174.829 250.634 174.892 250.61 174.955 250.57C174.955 250.57 174.955 250.57 174.963 250.57C175.539 250.195 176.532 249.526 177.682 248.816C178.455 248.354 179.227 247.907 180.023 247.501C181.214 246.911 182.443 246.297 183.728 246.09C183.949 246.066 184.153 246.058 184.343 246.082C184.287 246.13 184.232 246.178 184.169 246.225C183.286 246.943 182.412 247.676 181.552 248.41C177.548 251.773 173.442 255.297 169.462 258.485C169.43 258.493 169.399 258.501 169.367 258.509C167.743 259.848 166.167 261.498 164.725 263.045C164.086 263.659 163.66 264.36 162.904 264.607C158.246 265.795 153.319 264.001 148.63 265.293C145.264 266.289 141.954 267.549 139.037 269.597C138.943 269.605 138.848 269.629 138.761 269.693C138.044 270.211 137.343 270.777 136.657 271.383C136.428 271.59 136.405 271.949 136.61 272.18C136.72 272.307 136.87 272.371 137.027 272.371C137.161 272.371 137.288 272.323 137.398 272.228C137.965 271.725 138.549 271.255 139.14 270.817C142.135 273.224 145.556 275.089 149.197 276.285C169.343 283.077 190.924 267.517 191.09 246.026C191.287 237.943 188.544 229.725 183.168 223.667L183.16 223.659Z" fill="#4D4D4D"/>
</svg> 