<svg width="500" height="184" viewBox="0 0 500 184" fill="none" xmlns="http://www.w3.org/2000/svg">
<path d="M188.3 40.7716C188.3 56.8507 177.663 64.883 164.364 64.883C151.065 64.883 140.428 56.8507 140.428 40.7716C140.428 24.6925 151.065 16.6603 164.364 16.6603C177.663 16.6603 188.3 24.6925 188.3 40.7716ZM167.012 63.5516C177.649 63.5516 180.311 51.4959 180.311 40.7863C180.311 24.7071 169.675 18.0063 161.701 18.0063C151.065 18.0063 148.402 30.062 148.402 40.7863C148.402 56.8654 159.038 63.5662 167.012 63.5662V63.5516Z" fill="#4D4D4D"/>
<path d="M205.344 13.9681V63.5368L197.371 64.8829V13.9681C197.371 4.58987 193.377 3.24382 190.728 3.24382L189.397 1.89783C197.371 1.89783 205.359 4.57523 205.359 13.9535L205.344 13.9681Z" fill="#4D4D4D"/>
<path d="M225.827 13.9679V63.5366L217.854 64.8826V13.9679C217.854 4.58963 213.859 3.24358 211.211 3.24358L209.88 1.89758C217.854 1.89758 225.842 4.57498 225.842 13.9532L225.827 13.9679Z" fill="#4D4D4D"/>
<path d="M238.191 9.95911C238.191 7.73524 239.976 5.93567 242.185 5.93567C244.394 5.93567 246.179 7.73524 246.179 9.95911C246.179 12.183 244.394 13.9825 242.185 13.9825C239.976 13.9825 238.191 12.183 238.191 9.95911ZM238.191 19.3374L246.165 17.9914V63.5513L238.191 64.8974V19.3374Z" fill="#4D4D4D"/>
<path d="M301.044 34.0705V63.5512L293.07 64.8973V34.0851C293.07 24.4142 290.407 18.0059 281.102 18.0059C271.797 18.0059 266.471 26.0529 266.471 34.0851V63.5659L258.498 64.9119V19.352L266.471 18.0059V26.5796C269.324 20.3469 275.615 16.4405 282.433 16.6599C293.07 16.6599 301.044 22.0148 301.044 34.0705Z" fill="#4D4D4D"/>
<path d="M318.045 3.06823C318.791 3.82902 319.215 4.85319 319.215 5.92123C319.215 11.2761 316.553 15.2995 311.242 15.2995V13.9535C313.568 13.9535 314.885 12.9147 315.177 9.93002C312.968 9.91539 311.198 8.10116 311.212 5.87729C311.227 3.65343 313.027 1.86852 315.236 1.88315C316.289 1.88315 317.313 2.30743 318.06 3.06823H318.045Z" fill="#4D4D4D"/>
<path d="M367.599 51.4957C367.599 62.22 360.942 64.8974 347.657 64.8974C331.695 64.8974 327.715 56.8651 327.715 56.8651L330.378 52.8417C330.378 52.8417 335.689 63.566 347.657 63.566C356.962 63.566 359.625 58.2112 359.625 51.5103C359.625 44.8095 354.299 40.7861 347.657 39.4547C342.434 38.4012 327.715 38.1086 327.715 28.7303C327.715 19.3521 335.689 16.6747 347.657 16.6747C354.299 16.6747 362.229 18.0646 366.267 20.8444L363.692 26.3602C359.932 21.2102 353.992 18.1231 347.642 18.0207C339.669 18.0207 335.674 22.0441 335.674 28.745C335.674 36.1627 342.317 36.7772 348.974 38.1232C354.343 39.2059 367.584 42.1321 367.599 51.525V51.4957Z" fill="#4D4D4D"/>
<path d="M281.819 105.497C281.819 116.222 275.162 118.899 261.878 118.899C245.916 118.899 241.936 110.867 241.936 110.867L244.599 106.843C244.599 106.843 249.91 117.568 261.878 117.568C271.183 117.568 273.846 112.213 273.846 105.512C273.846 98.8112 268.52 94.7878 261.878 93.4564C256.655 92.403 241.936 92.1104 241.936 82.7321C241.936 73.3539 249.91 70.6764 261.878 70.6764C268.52 70.6764 276.45 72.0664 280.488 74.8462L277.913 80.3619C274.153 75.2119 268.213 72.1249 261.863 72.0225C253.889 72.0225 249.895 76.0459 249.895 82.7467C249.895 90.1645 256.537 90.779 263.194 92.125C268.564 93.2077 281.805 96.1338 281.819 105.527V105.497Z" fill="#4D4D4D"/>
<path d="M314.357 116.207C312.543 117.889 310.173 118.841 307.715 118.884C298.41 118.884 293.084 113.53 293.084 101.459V73.3244H287.759V71.9784H293.084V63.9462L301.058 62.6002V71.9784H311.695V73.3244H301.058V102.805C301.058 112.184 302.389 117.538 307.7 117.538C310.363 117.538 311.695 113.515 311.695 113.515L314.357 116.192V116.207Z" fill="#4D4D4D"/>
<path d="M364.307 70.6621V117.553L356.333 118.899V108.98C353.48 115.212 347.189 119.119 340.371 118.899C329.734 118.899 321.761 113.545 321.761 101.474V71.9935L329.734 70.6475V101.46C329.734 111.131 332.397 117.539 341.702 117.539C351.007 117.539 356.333 109.507 356.333 101.46V71.9788L364.307 70.6328V70.6621Z" fill="#4D4D4D"/>
<path d="M422.581 55.9142V117.553L414.607 118.899V113.705C410.043 117.231 404.41 119.075 398.645 118.899C385.346 118.899 374.709 110.867 374.709 94.7879C374.709 78.7088 385.346 70.6765 398.645 70.6765C404.395 70.5156 410.028 72.3445 414.607 75.8705V57.2748L422.581 55.9288V55.9142ZM401.308 117.553C406.634 117.334 411.564 114.612 414.607 110.194V80.6986C409.75 75.4754 403.078 72.3591 395.997 72.0079C385.361 72.0079 382.698 84.0636 382.698 94.7879C382.698 110.867 393.334 117.568 401.308 117.568V117.553Z" fill="#4D4D4D"/>
<path d="M435.076 63.9612C435.076 61.7373 436.861 59.9377 439.07 59.9377C441.279 59.9377 443.064 61.7373 443.064 63.9612C443.064 66.185 441.279 67.9846 439.07 67.9846C436.861 67.9846 435.076 66.185 435.076 63.9612ZM435.076 73.3394L443.049 71.9934V117.553L435.076 118.899V73.3394Z" fill="#4D4D4D"/>
<path d="M499.67 96.2509C499.67 112.33 489.033 120.362 475.734 120.362C462.435 120.362 451.798 112.33 451.798 96.2509C451.798 80.1718 462.435 72.1395 475.734 72.1395C489.033 72.1395 499.67 80.1718 499.67 96.2509ZM478.397 119.016C489.033 119.016 491.696 106.961 491.696 96.2509C491.696 80.1718 481.06 73.471 473.086 73.471C462.449 73.471 459.787 85.5267 459.787 96.2509C459.787 112.33 470.423 119.031 478.397 119.031V119.016Z" fill="#4D4D4D"/>
<path d="M482.306 176.446V157.951H484.807V172.641L497.172 157.951H499.391V176.446H496.89V161.72L484.56 176.446H482.306Z" fill="#4D4D4D"/>
<path d="M458.052 176.446V157.951H460.553V172.641L472.918 157.951H475.137V176.446H472.636V161.72L460.306 176.446H458.052Z" fill="#4D4D4D"/>
<path d="M433.97 176.446V157.951H436.471V174.262H447.78V157.951H450.281V176.446H433.97ZM450.915 180.92V176.234L451.549 176.446H447.78V174.262H453.275V180.92H450.915Z" fill="#4D4D4D"/>
<path d="M424.548 176.446V169.788L425.006 170.316H418.736C416.363 170.316 414.508 169.799 413.169 168.766C411.831 167.733 411.161 166.23 411.161 164.257C411.161 162.143 411.878 160.57 413.31 159.536C414.743 158.479 416.657 157.951 419.053 157.951H426.838V176.446H424.548ZM411.021 176.446L416.093 169.33H418.7L413.733 176.446H411.021ZM424.548 169.048V159.395L425.006 160.135H419.123C417.409 160.135 416.07 160.464 415.107 161.121C414.168 161.779 413.698 162.848 413.698 164.327C413.698 167.075 415.448 168.449 418.947 168.449H425.006L424.548 169.048Z" fill="#4D4D4D"/>
<path d="M386.965 176.411L387.141 174.262C387.305 174.285 387.458 174.32 387.599 174.367C387.763 174.391 387.904 174.403 388.022 174.403C388.773 174.403 389.372 174.121 389.818 173.557C390.288 172.993 390.64 172.242 390.875 171.302C391.11 170.363 391.274 169.306 391.368 168.132C391.462 166.934 391.545 165.736 391.615 164.539L391.932 157.951H405.495V176.446H402.994V159.395L403.628 160.135H393.553L394.151 159.36L393.87 164.715C393.799 166.312 393.67 167.838 393.482 169.294C393.318 170.751 393.048 172.03 392.672 173.134C392.32 174.238 391.826 175.107 391.192 175.741C390.558 176.352 389.748 176.657 388.761 176.657C388.48 176.657 388.186 176.634 387.881 176.587C387.599 176.54 387.294 176.481 386.965 176.411Z" fill="#4D4D4D"/>
<path d="M366.093 176.446V157.951H368.594V172.641L380.96 157.951H383.179V176.446H380.678V161.72L368.348 176.446H366.093Z" fill="#4D4D4D"/>
<path d="M342.355 176.446V157.951H358.983V176.446H356.482V159.466L357.116 160.135H344.222L344.856 159.466V176.446H342.355Z" fill="#4D4D4D"/>
<path d="M324.801 167.991V166.089H335.546V167.991H324.801ZM327.267 157.775C329.146 157.775 330.825 158.186 332.305 159.008C333.785 159.807 334.947 160.922 335.793 162.355C336.662 163.764 337.096 165.373 337.096 167.181C337.096 168.989 336.662 170.61 335.793 172.042C334.947 173.475 333.785 174.602 332.305 175.424C330.825 176.246 329.146 176.657 327.267 176.657C325.741 176.657 324.32 176.423 323.005 175.953C321.713 175.46 320.621 174.755 319.729 173.839L321.208 172.36C322.007 173.111 322.911 173.675 323.921 174.05C324.931 174.403 326.011 174.579 327.162 174.579C328.618 174.579 329.909 174.262 331.037 173.628C332.188 172.97 333.092 172.089 333.749 170.986C334.407 169.858 334.736 168.59 334.736 167.181C334.736 165.772 334.407 164.515 333.749 163.412C333.092 162.284 332.188 161.404 331.037 160.769C329.909 160.135 328.618 159.818 327.162 159.818C326.011 159.818 324.931 160.006 323.921 160.382C322.911 160.734 322.007 161.286 321.208 162.038L319.729 160.593C320.621 159.654 321.713 158.949 323.005 158.48C324.32 158.01 325.741 157.775 327.267 157.775Z" fill="#4D4D4D"/>
<path d="M288.756 176.446V157.951H291.258V172.641L303.623 157.951H305.842V176.446H303.341V161.721L291.011 176.446H288.756ZM297.141 155.274C295.591 155.274 294.334 154.886 293.371 154.111C292.432 153.313 291.939 152.174 291.892 150.694H293.688C293.712 151.634 294.041 152.373 294.675 152.913C295.309 153.454 296.131 153.724 297.141 153.724C298.151 153.724 298.973 153.454 299.607 152.913C300.264 152.373 300.605 151.634 300.628 150.694H302.425C302.401 152.174 301.908 153.313 300.945 154.111C299.982 154.886 298.714 155.274 297.141 155.274Z" fill="#4D4D4D"/>
<path d="M273.969 176.622C272.185 176.622 270.576 176.223 269.143 175.424C267.734 174.602 266.618 173.487 265.796 172.078C264.974 170.645 264.563 169.013 264.563 167.181C264.563 165.326 264.974 163.693 265.796 162.284C266.618 160.875 267.734 159.771 269.143 158.973C270.552 158.174 272.161 157.775 273.969 157.775C275.801 157.775 277.422 158.174 278.831 158.973C280.264 159.771 281.379 160.875 282.178 162.284C283 163.693 283.411 165.326 283.411 167.181C283.411 169.013 283 170.645 282.178 172.078C281.379 173.487 280.264 174.602 278.831 175.424C277.398 176.223 275.778 176.622 273.969 176.622ZM273.969 174.403C275.308 174.403 276.494 174.109 277.527 173.522C278.561 172.911 279.371 172.066 279.958 170.986C280.569 169.882 280.874 168.614 280.874 167.181C280.874 165.725 280.569 164.457 279.958 163.376C279.371 162.296 278.561 161.462 277.527 160.875C276.494 160.264 275.32 159.959 274.005 159.959C272.689 159.959 271.515 160.264 270.482 160.875C269.448 161.462 268.626 162.296 268.016 163.376C267.405 164.457 267.1 165.725 267.1 167.181C267.1 168.614 267.405 169.882 268.016 170.986C268.626 172.066 269.448 172.911 270.482 173.522C271.515 174.109 272.678 174.403 273.969 174.403Z" fill="#4D4D4D"/>
<path d="M242.588 176.446V157.951H245.089V166.124H256.75V157.951H259.251V176.446H256.75V168.273H245.089V176.446H242.588Z" fill="#4D4D4D"/>
<path d="M227.984 176.622C226.387 176.622 224.943 176.258 223.651 175.53C222.36 174.779 221.326 173.71 220.551 172.324C219.8 170.915 219.424 169.201 219.424 167.181C219.424 165.161 219.8 163.459 220.551 162.073C221.303 160.664 222.324 159.595 223.616 158.867C224.908 158.139 226.364 157.775 227.984 157.775C229.746 157.775 231.319 158.174 232.705 158.973C234.114 159.748 235.218 160.852 236.016 162.284C236.815 163.693 237.214 165.326 237.214 167.181C237.214 169.06 236.815 170.704 236.016 172.113C235.218 173.522 234.114 174.626 232.705 175.424C231.319 176.223 229.746 176.622 227.984 176.622ZM218.438 183.28V157.951H220.833V163.517L220.586 167.216L220.939 170.95V183.28H218.438ZM227.808 174.403C229.123 174.403 230.298 174.109 231.331 173.522C232.364 172.911 233.186 172.066 233.797 170.986C234.408 169.882 234.713 168.614 234.713 167.181C234.713 165.748 234.408 164.492 233.797 163.412C233.186 162.331 232.364 161.486 231.331 160.875C230.298 160.264 229.123 159.959 227.808 159.959C226.493 159.959 225.307 160.264 224.25 160.875C223.217 161.486 222.395 162.331 221.784 163.412C221.197 164.492 220.903 165.748 220.903 167.181C220.903 168.614 221.197 169.882 221.784 170.986C222.395 172.066 223.217 172.911 224.25 173.522C225.307 174.109 226.493 174.403 227.808 174.403Z" fill="#4D4D4D"/>
<path d="M204.587 176.622C202.661 176.622 200.97 176.223 199.514 175.424C198.058 174.602 196.919 173.487 196.097 172.078C195.275 170.645 194.864 169.013 194.864 167.181C194.864 165.349 195.252 163.729 196.027 162.319C196.825 160.91 197.906 159.807 199.268 159.008C200.653 158.186 202.203 157.775 203.918 157.775C205.656 157.775 207.194 158.174 208.533 158.973C209.895 159.748 210.964 160.852 211.739 162.284C212.514 163.693 212.901 165.326 212.901 167.181C212.901 167.298 212.889 167.428 212.866 167.568C212.866 167.686 212.866 167.815 212.866 167.956H196.767V166.089H211.527L210.541 166.829C210.541 165.49 210.247 164.304 209.66 163.271C209.096 162.214 208.321 161.392 207.335 160.805C206.349 160.218 205.21 159.924 203.918 159.924C202.65 159.924 201.511 160.218 200.501 160.805C199.491 161.392 198.704 162.214 198.14 163.271C197.577 164.327 197.295 165.537 197.295 166.899V167.287C197.295 168.696 197.6 169.941 198.211 171.021C198.845 172.078 199.714 172.911 200.818 173.522C201.945 174.109 203.225 174.403 204.658 174.403C205.785 174.403 206.83 174.203 207.793 173.804C208.779 173.405 209.625 172.794 210.329 171.972L211.739 173.593C210.917 174.579 209.883 175.33 208.639 175.847C207.417 176.364 206.067 176.622 204.587 176.622Z" fill="#4D4D4D"/>
<path d="M182.809 176.657C181.471 176.657 180.144 176.469 178.828 176.094C177.513 175.718 176.351 175.142 175.341 174.367L176.151 172.5C177.044 173.158 178.077 173.663 179.251 174.015C180.425 174.344 181.588 174.508 182.739 174.508C183.89 174.485 184.888 174.32 185.733 174.015C186.579 173.71 187.236 173.287 187.706 172.747C188.176 172.207 188.411 171.596 188.411 170.915C188.411 169.929 187.964 169.165 187.072 168.625C186.179 168.062 184.958 167.78 183.408 167.78H180.238V165.948H183.232C184.148 165.948 184.958 165.83 185.663 165.596C186.367 165.361 186.907 165.02 187.283 164.574C187.682 164.128 187.882 163.599 187.882 162.989C187.882 162.331 187.647 161.767 187.178 161.298C186.731 160.828 186.109 160.476 185.31 160.241C184.512 160.006 183.608 159.889 182.598 159.889C181.682 159.912 180.731 160.053 179.744 160.311C178.758 160.546 177.783 160.91 176.82 161.403L176.116 159.466C177.196 158.902 178.265 158.48 179.322 158.198C180.402 157.892 181.482 157.74 182.563 157.74C184.042 157.693 185.369 157.869 186.543 158.268C187.741 158.667 188.692 159.243 189.397 159.994C190.101 160.722 190.454 161.603 190.454 162.636C190.454 163.552 190.172 164.351 189.608 165.032C189.045 165.713 188.293 166.241 187.354 166.617C186.414 166.993 185.346 167.181 184.148 167.181L184.254 166.512C186.367 166.512 188.011 166.923 189.186 167.745C190.383 168.567 190.982 169.682 190.982 171.091C190.982 172.195 190.618 173.17 189.89 174.015C189.162 174.837 188.176 175.483 186.931 175.953C185.71 176.422 184.336 176.657 182.809 176.657Z" fill="#4D4D4D"/>
<path d="M169.167 176.446V172.36L169.061 171.69V164.856C169.061 163.282 168.615 162.073 167.723 161.227C166.854 160.382 165.55 159.959 163.812 159.959C162.615 159.959 161.475 160.159 160.395 160.558C159.315 160.957 158.399 161.486 157.647 162.143L156.52 160.276C157.459 159.478 158.587 158.867 159.902 158.444C161.217 157.998 162.603 157.775 164.059 157.775C166.454 157.775 168.298 158.374 169.59 159.572C170.905 160.746 171.563 162.543 171.563 164.962V176.446H169.167ZM162.791 176.622C161.405 176.622 160.196 176.399 159.162 175.953C158.152 175.483 157.377 174.849 156.837 174.05C156.297 173.228 156.027 172.289 156.027 171.232C156.027 170.269 156.25 169.4 156.696 168.625C157.166 167.827 157.917 167.193 158.951 166.723C160.008 166.23 161.417 165.983 163.178 165.983H169.555V167.85H163.249C161.464 167.85 160.219 168.167 159.514 168.801C158.833 169.436 158.493 170.222 158.493 171.162C158.493 172.219 158.904 173.064 159.726 173.698C160.548 174.332 161.699 174.649 163.178 174.649C164.587 174.649 165.797 174.332 166.807 173.698C167.84 173.041 168.592 172.101 169.061 170.88L169.625 172.606C169.155 173.827 168.333 174.802 167.159 175.53C166.008 176.258 164.552 176.622 162.791 176.622Z" fill="#4D4D4D"/>
<path d="M132.042 176.411L132.218 174.262C132.383 174.285 132.535 174.32 132.676 174.367C132.841 174.391 132.981 174.403 133.099 174.403C133.85 174.403 134.449 174.121 134.895 173.557C135.365 172.993 135.717 172.242 135.952 171.302C136.187 170.363 136.352 169.306 136.446 168.132C136.539 166.934 136.622 165.736 136.692 164.539L137.009 157.951H150.572V176.446H148.071V159.395L148.705 160.135H138.63L139.229 159.36L138.947 164.715C138.876 166.312 138.747 167.838 138.559 169.294C138.395 170.751 138.125 172.03 137.749 173.134C137.397 174.238 136.903 175.107 136.269 175.741C135.635 176.352 134.825 176.657 133.839 176.657C133.557 176.657 133.263 176.634 132.958 176.587C132.676 176.54 132.371 176.481 132.042 176.411Z" fill="#4D4D4D"/>
<path d="M116.783 176.446V169.788L117.241 170.316H110.97C108.598 170.316 106.742 169.799 105.404 168.766C104.065 167.733 103.396 166.23 103.396 164.257C103.396 162.143 104.112 160.57 105.545 159.536C106.977 158.479 108.891 157.951 111.287 157.951H119.072V176.446H116.783ZM103.255 176.446L108.328 169.33H110.935L105.967 176.446H103.255ZM116.783 169.048V159.395L117.241 160.135H111.357C109.643 160.135 108.304 160.464 107.341 161.121C106.402 161.779 105.932 162.848 105.932 164.327C105.932 167.075 107.682 168.449 111.181 168.449H117.241L116.783 169.048Z" fill="#4D4D4D"/>
<path d="M80.5864 176.446V157.951H83.0876V172.641L95.4528 157.951H97.6721V176.446H95.1709V161.72L82.841 176.446H80.5864Z" fill="#4D4D4D"/>
<path d="M70.3216 175.248V160.135H61.4089L61.1975 164.257C61.1505 165.502 61.0683 166.723 60.9509 167.921C60.8569 169.118 60.6808 170.222 60.4225 171.232C60.1876 172.218 59.8471 173.029 59.4008 173.663C58.9546 174.273 58.3792 174.626 57.6747 174.72L55.1735 174.262C55.9015 174.285 56.5004 174.027 56.9701 173.487C57.4398 172.923 57.8038 172.16 58.0622 171.197C58.3205 170.234 58.5084 169.142 58.6258 167.921C58.7433 166.676 58.8372 165.408 58.9077 164.116L59.1543 157.951H72.8228V175.248H70.3216ZM54.3984 180.92V174.262H75.7115V180.92H73.3512V176.446H56.7587V180.92H54.3984Z" fill="#4D4D4D"/>
<path d="M39.1039 183.456C38.235 183.456 37.4012 183.315 36.6027 183.033C35.8277 182.752 35.1584 182.329 34.5947 181.765L35.7573 179.898C36.227 180.344 36.7319 180.685 37.2721 180.92C37.8357 181.178 38.4581 181.307 39.1392 181.307C39.9612 181.307 40.6657 181.072 41.2529 180.603C41.8635 180.156 42.4389 179.358 42.9791 178.207L44.1768 175.495L44.4586 175.107L52.0679 157.951H54.5339L45.2689 178.665C44.7522 179.863 44.1768 180.814 43.5427 181.519C42.9321 182.223 42.2627 182.716 41.5347 182.998C40.8066 183.304 39.9964 183.456 39.1039 183.456ZM44.0359 176.974L35.5107 157.951H38.1176L45.6564 174.931L44.0359 176.974Z" fill="#4D4D4D"/>
<path d="M25.6589 176.446V159.466L26.293 160.135H18.6484V157.951H35.1705V160.135H27.526L28.1601 159.466V176.446H25.6589Z" fill="#4D4D4D"/>
<path d="M10.3799 176.622C8.548 176.622 6.90401 176.223 5.44791 175.424C4.01529 174.602 2.88799 173.487 2.066 172.078C1.244 170.645 0.833008 169.013 0.833008 167.181C0.833008 165.326 1.244 163.693 2.066 162.284C2.88799 160.875 4.01529 159.771 5.44791 158.973C6.90401 158.174 8.548 157.775 10.3799 157.775C11.9534 157.775 13.3743 158.08 14.6425 158.691C15.9107 159.302 16.9088 160.218 17.6369 161.439L15.7698 162.707C15.1357 161.768 14.3489 161.075 13.4095 160.629C12.4701 160.182 11.4485 159.959 10.3446 159.959C9.02945 159.959 7.84343 160.264 6.78658 160.875C5.72974 161.462 4.896 162.296 4.28538 163.376C3.67475 164.457 3.36944 165.725 3.36944 167.181C3.36944 168.637 3.67475 169.905 4.28538 170.986C4.896 172.066 5.72974 172.911 6.78658 173.522C7.84343 174.109 9.02945 174.403 10.3446 174.403C11.4485 174.403 12.4701 174.18 13.4095 173.733C14.3489 173.287 15.1357 172.606 15.7698 171.69L17.6369 172.958C16.9088 174.156 15.9107 175.072 14.6425 175.706C13.3743 176.317 11.9534 176.622 10.3799 176.622Z" fill="#4D4D4D"/>
<path d="M103.55 19.7039C102.141 18.1419 100.658 16.6978 99.1613 15.3274C102.896 12.0561 106.326 8.34272 109.625 3.9515L109.741 3.81888C109.916 3.61258 110.148 3.34734 109.959 3.03789C109.872 2.90527 109.698 2.75792 109.349 2.84633C108.608 3.02316 106.777 4.92405 103.579 8.2543C101.501 10.4204 99.3648 12.6455 97.7516 14.0749C63.8172 -15.028 9.04251 3.03789 0.889527 49.5435C-1.65374 64.0139 1.31098 79.3537 9.08611 91.7611C9.08611 92.4536 9.78369 93.1315 10.5394 92.7631C17.0647 89.7128 20.9014 83.7301 26.235 79.5747C29.4032 77.3938 32.9056 74.8003 36.6406 73.8573C46.4503 71.367 56.7542 72.5163 66.7819 73.2826C65.4304 74.874 64.1224 76.4949 62.829 78.1306C60.4165 78.4106 58.1494 79.3095 56.1293 80.6209C50.1998 81.1956 44.2995 79.28 38.6607 77.5264L38.4717 77.9832C43.1514 80.0904 48.2815 82.566 53.5279 82.6986C53.121 83.0818 52.7431 83.4796 52.3798 83.8922L41.6399 85.2037C41.2475 85.2479 41.2911 85.8521 41.669 85.8521C41.8434 85.8521 50.4905 85.9257 52.5832 85.9257C52.8303 85.9994 53.1064 85.9699 53.3535 85.8226C53.586 85.7194 53.7459 85.5426 53.8476 85.3216C54.6905 84.2311 55.6788 83.2144 56.7833 82.3597C56.9577 82.3155 57.1175 82.2713 57.2629 82.1976L57.3791 82.1534C57.3791 82.1534 57.3791 82.1387 57.3791 82.124C57.6552 81.9766 57.8587 81.785 57.9168 81.5345C59.0504 80.7977 60.2712 80.2231 61.5501 79.8252C61.2304 80.2378 60.9106 80.6357 60.5909 81.063C60.5764 81.0777 60.5618 81.1072 60.5473 81.1219C60.1404 81.6377 60.9397 82.2713 61.3321 81.7703C63.948 78.7937 66.6657 75.9055 69.456 73.1352C69.4996 73.1058 69.5141 73.0468 69.5432 73.0026C72.8422 69.5397 76.2138 66.0327 80.2104 63.4539C81.2422 62.835 82.7827 61.9656 83.8872 62.3046C83.4512 63.115 83.0007 63.9255 82.5356 64.7359C78.9315 70.6891 74.4699 76.2002 70.2989 81.7261C69.9792 82.1092 70.546 82.6102 70.8802 82.2566C75.7488 77.1433 80.1232 71.588 83.9308 65.6201C84.425 64.8833 84.9045 64.1318 85.3696 63.3508C85.544 63.0561 85.7329 62.7908 85.9073 62.4961C86.1253 62.1572 86.009 61.7446 85.762 61.3909C87.5495 59.9174 89.4388 58.547 91.4298 57.4565C92.854 56.7197 94.816 55.7914 96.4582 55.9682C96.5018 55.9682 96.5454 55.9682 96.589 55.9682C96.807 55.9977 97.025 56.0714 97.2285 56.1451C97.2721 56.1598 97.3302 56.1745 97.3738 56.1893C97.4029 56.1893 97.4174 56.2187 97.4465 56.2335C94.4963 60.2416 91.2118 64.0876 87.8547 67.8894C87.753 67.963 87.6513 68.0367 87.5495 68.0956C87.535 68.1104 87.5059 68.1251 87.4914 68.1399C87.3025 68.2725 87.2007 68.464 87.1717 68.6703C83.364 72.9731 79.4837 77.2317 75.9668 81.6082C75.5308 82.1682 76.4027 82.846 76.8242 82.286C76.8533 82.2566 76.8823 82.2124 76.9114 82.1829C78.6118 80.0168 80.5301 77.939 82.4049 75.8466C84.236 73.8131 86.1543 71.7206 88.0727 69.5987C88.189 69.5692 88.3053 69.525 88.4215 69.4513C88.4215 69.4513 88.4215 69.4513 88.436 69.4513C89.4969 68.7588 91.3281 67.521 93.4499 66.2095C94.8741 65.3548 96.2984 64.5296 97.7662 63.7781C99.9607 62.6877 102.228 61.553 104.597 61.1699C105.004 61.1257 105.381 61.111 105.73 61.1552C105.629 61.2436 105.527 61.332 105.411 61.4204C103.783 62.7466 102.17 64.1023 100.586 65.458C93.2029 71.6764 85.6312 78.1895 78.292 84.0838C78.2339 84.0985 78.1758 84.1133 78.1176 84.128C75.1238 86.6036 72.2173 89.6539 69.5577 92.5126C68.3806 93.6472 67.5958 94.9439 66.2006 95.4007C57.6116 97.5963 48.5285 94.2808 39.8814 96.668C33.6759 98.5099 27.572 100.838 22.1948 104.625C22.0204 104.64 21.846 104.684 21.6862 104.802C20.3637 105.76 19.0702 106.806 17.8059 107.926C17.3844 108.309 17.3408 108.972 17.7187 109.4C17.9221 109.635 18.1983 109.753 18.4889 109.753C18.736 109.753 18.9685 109.665 19.172 109.488C20.2184 108.56 21.2938 107.69 22.3838 106.88C27.9063 111.33 34.2136 114.778 40.9278 116.988C78.074 129.543 117.865 100.779 118.17 61.052C118.534 46.1101 113.476 30.9177 103.565 19.7186L103.55 19.7039ZM86.1108 79.6926C87.9855 78.278 90.1364 76.5539 92.3309 74.7561C92.4035 74.7414 92.4762 74.7267 92.5343 74.6972C96.153 72.9142 103.565 69.024 107.169 72.2069C105.033 73.1205 102.969 74.1962 100.978 75.3161C97.3738 77.3644 94.133 79.5305 90.1364 80.6062C87.4478 81.5345 84.5412 82.3597 81.7073 83.1407C83.771 81.5198 86.0962 79.6926 86.0962 79.6926H86.1108ZM41.4655 115.205C35.0856 113.128 29.0835 109.871 23.7935 105.701C27.7174 103.034 32.0772 101.044 36.6115 99.5415C43.9797 96.4912 51.9002 97.9205 59.6463 98.0089C62.4075 97.9647 65.2705 97.9647 67.8428 96.6975C69.7757 95.2386 71.883 92.6452 73.5834 90.9506C75.3564 89.1234 77.2021 87.3698 79.1349 85.7489C81.6927 85.0858 84.2505 84.2606 86.7647 83.4649L90.6451 82.1682C97.2721 80.2083 102.795 75.5224 109.291 73.371C109.712 73.091 109.829 72.5163 109.552 72.089C106.878 68.1693 102.271 68.6703 98.0133 70.1734C100.571 67.9778 103.129 65.7674 105.73 63.6308C106.559 62.9529 107.387 62.2751 108.23 61.6267C108.317 61.5383 108.361 61.4646 108.419 61.3762C108.419 61.3615 108.448 61.3467 108.462 61.3173C108.593 61.0815 108.622 60.8457 108.55 60.6247C108.55 60.5805 108.535 60.551 108.521 60.5068C108.477 60.4184 108.433 60.3447 108.375 60.2563C108.361 60.2416 108.361 60.2121 108.346 60.1974C108.346 60.1974 108.346 60.1974 108.332 60.1974C107.925 59.6816 107.169 59.2837 106.66 59.2248C106.515 59.2101 106.37 59.2248 106.21 59.1953C105.163 59.0332 104.001 59.1953 102.838 59.5637C102.838 59.5637 102.824 59.5637 102.809 59.5637C102.562 59.6374 102.315 59.7258 102.068 59.8142C100.28 60.4331 98.5655 61.3762 96.9233 62.1719C95.3247 63.0413 93.7696 63.9697 92.2437 64.9275C94.6707 62.2014 97.0832 59.4311 99.3648 56.5577C99.641 56.2187 99.6119 55.7177 99.3067 55.4083C99.2631 55.3641 99.2049 55.3346 99.1613 55.3051C98.9869 55.1283 98.769 54.9809 98.5364 54.8483C98.4928 54.8188 98.4347 54.7894 98.3911 54.7599C98.1731 54.6568 97.9551 54.5683 97.7516 54.4947C97.6063 54.4357 97.461 54.3915 97.3011 54.3621C97.1994 54.3326 97.0977 54.3031 97.0105 54.3031C96.996 54.3031 96.9669 54.3031 96.9523 54.3031C92.8395 53.5958 87.2589 57.707 84.236 60.4037C83.3495 60.1974 82.0996 60.4331 81.6201 60.6542C79.1785 61.5678 77.1585 63.2182 75.1965 64.8391C72.7986 66.9021 70.575 69.1271 68.4242 71.4112C63.1487 70.9396 57.8587 70.527 52.5396 70.3944C44.3576 70.247 35.4198 70.527 28.5167 75.5371C26.5402 76.8928 23.4156 78.8527 21.8896 80.6209C18.2128 84.349 14.7104 88.1803 10.3214 90.4938C6.76085 84.6143 4.1885 78.1306 2.88053 71.3522C-7.1472 16.1673 55.5916 -18.7856 95.4119 15.9758C94.5254 16.6683 93.6243 17.3609 92.6651 18.0535C92.5343 18.0535 92.389 18.0535 92.2727 18.1124C88.5814 19.6007 84.8609 20.5438 81.1695 20.9269C81.1695 20.8827 81.1696 20.8385 81.155 20.809C81.0242 20.2786 80.7045 19.7333 80.2104 19.1439C79.8907 18.7608 79.4983 18.3629 79.0332 17.9503C77.3619 16.4768 75.3419 15.5484 72.4498 14.9148C70.793 14.5611 69.0055 14.3254 67.1162 14.0896C66.2297 13.9717 65.3141 13.8538 64.3695 13.7212C62.5093 13.456 60.62 13.7212 58.7743 14.5022C57.4518 15.0622 56.1583 15.8726 54.9521 16.9188C53.9929 17.744 53.4116 18.4366 53.2953 18.5692C53.0628 18.8639 53.0192 19.2618 53.1791 19.586C53.3389 19.9249 53.7023 20.1165 54.0511 20.1017C54.8068 20.0723 55.6061 20.2491 56.5798 20.6912C57.6698 21.1774 58.8324 21.9437 60.184 22.8131C60.5764 23.0636 60.9833 23.3288 61.4047 23.5941C63.1778 24.714 65.3286 25.9665 67.8574 26.8212C68.9183 27.1748 69.9937 27.3517 71.0837 27.3517C72.3045 27.3517 73.5398 27.1306 74.7896 26.6738C76.7079 25.9665 78.2339 24.8613 79.1785 24.0509C79.6145 23.6825 79.9197 23.373 80.0796 23.1962C80.2104 23.1373 80.3702 23.0341 80.5446 22.8868C82.7246 22.7099 84.9045 22.3268 87.099 21.7816C85.1225 23.0194 83.1606 24.1835 81.4312 25.2003C74.5135 29.2526 67.0145 32.1555 61.9279 33.8943C59.6317 34.6753 57.3355 35.3973 55.112 36.0162C54.2836 36.252 53.6151 36.4288 53.1791 36.5319L52.932 36.5909C52.714 35.5447 52.4524 34.5132 52.0455 33.5112C51.6241 32.3618 50.7957 31.4334 49.9673 30.5788C49.5023 29.341 48.7465 28.0884 47.642 26.777C46.523 25.436 45.2441 24.2572 44.1396 23.2699L43.3112 22.5331C42.5555 21.87 41.887 21.2806 41.4946 20.8532C40.4628 19.7481 38.8641 19.0408 37.0184 18.8639C35.2309 18.6871 33.3707 19.0113 31.7866 19.7776C31.5686 19.8807 31.3361 20.0281 31.0454 20.2491C30.7983 20.4407 30.5222 20.6617 30.2316 20.9122C29.4904 21.5458 29.2433 22.7541 29.0108 23.8151C28.8655 24.4929 28.7201 25.2003 28.4876 25.4213C28.2841 25.6276 28.0226 25.7897 27.7319 25.9076C27.5866 25.9665 27.0343 25.8928 26.6274 25.8339C25.5229 25.6865 24.1422 25.495 23.2993 26.217C22.1803 27.1896 21.3083 28.3537 20.727 29.7094C19.7242 32.0376 19.9277 34.13 20.2765 35.471C20.6107 36.7677 21.1194 37.6076 21.2793 37.8582C20.8433 38.4623 20.5236 39.0812 20.3637 39.7148C20.0004 41.2031 20.1312 42.9125 20.262 44.0618C20.3637 44.9607 20.9741 45.7859 21.5263 46.5227C21.8896 47.009 22.253 47.51 22.3111 47.8489C22.3547 48.1289 22.1222 48.6004 21.9042 49.072C21.5409 49.8235 21.1485 50.6781 21.2938 51.5917C21.4973 52.8885 21.8606 54.5241 22.8197 55.6882C22.9069 55.7914 22.9942 55.8798 23.0814 55.983C23.9097 56.7934 25.0724 57.3534 26.5402 57.6186C27.0489 57.707 27.4703 57.7512 27.8046 57.766C28.1243 58.4585 28.5603 59.1806 29.1125 59.8437C29.7665 60.6247 30.5222 61.2878 31.2779 61.7593C32.1499 62.3045 33.0073 62.5698 33.8357 62.5698C33.8793 62.5698 33.9084 62.5698 33.9375 62.5698C34.5769 62.5403 35.2745 62.3635 36.1174 61.9804C36.5243 61.8035 36.9458 61.5678 37.3963 61.3173C37.3963 61.3615 37.3672 61.3909 37.3672 61.4351C37.3091 61.7299 37.3818 62.0393 37.5852 62.2603C37.7596 62.4666 38.0212 62.5698 38.2828 62.5698C38.3119 62.5698 38.3409 62.5698 38.3555 62.5698C38.5299 62.5698 40.0558 62.4077 41.8579 62.0246C42.977 61.7888 43.9797 61.5088 44.8372 61.1846C45.9708 60.7573 46.8427 60.2858 47.4967 59.7258C47.5839 59.6521 47.6711 59.5637 47.7583 59.49C48.3832 58.8711 49.0081 57.9575 49.6185 56.7492C50.4614 55.1136 51.2026 53.08 51.6677 51.1792C51.9002 50.1919 52.0601 49.2635 52.1182 48.4383C52.1618 47.7015 52.1327 47.0827 52.031 46.5522L52.7576 45.1818C53.0192 44.6513 53.3099 44.2092 53.5424 43.6198C53.804 42.9125 53.7459 42.161 53.5134 41.4536C53.4988 40.5842 53.368 39.4054 53.2663 38.4623C55.4462 37.9171 66.0407 35.1321 76.9114 29.7683C77.173 29.5915 82.0125 26.998 82.3613 26.8359C82.3613 26.8359 82.3904 26.8359 82.3904 26.8212C87.1426 24.0509 92.1419 21.0301 96.8506 17.2578C98.362 18.6576 99.8299 20.1459 101.269 21.7521C140.115 66.1211 97.025 132.372 41.4946 115.161L41.4655 115.205ZM63.7736 19.0702C63.5411 19.527 63.7155 20.1017 64.166 20.3522C64.2968 20.4112 67.2906 21.9879 72.3045 22.6952C73.9612 22.931 75.6761 23.0489 77.4055 23.0489H77.4346C76.6207 23.6825 75.5017 24.4193 74.1356 24.9203C72.1882 25.6276 70.2698 25.6718 68.4242 25.0529C65.5902 24.1098 63.2214 22.5773 61.1432 21.2216L60.6345 20.8975C59.5736 20.2196 58.44 19.4976 57.3355 18.9966C56.8705 18.7903 56.4199 18.6134 55.9985 18.4956C56.0421 18.4513 56.0857 18.4219 56.1293 18.3777C56.8559 17.7588 58.0331 16.8746 59.4573 16.2705C61.0124 15.6221 62.5528 15.4011 64.0788 15.6074C65.038 15.74 65.9536 15.8579 66.8546 15.9758C68.7148 16.2115 70.4733 16.4326 72.0429 16.7715C74.6007 17.3314 76.3737 18.1272 77.7834 19.3797C78.1903 19.7333 78.51 20.0723 78.7716 20.367C79.0332 20.6764 79.1785 20.9122 79.2512 21.089C76.9841 21.2069 74.7315 21.1185 72.5661 20.809C70.0809 20.4554 68.148 19.8807 66.9709 19.4534C66.3314 19.2323 65.8373 19.026 65.503 18.8787C65.3432 18.805 65.2124 18.7461 65.1397 18.7018L64.9653 19.085L65.038 18.6576C64.5875 18.4071 64.0207 18.5987 63.7736 19.0555V19.0702ZM36.8586 59.4458C36.2627 59.8142 35.7105 60.1237 35.2018 60.33C34.6641 60.5657 34.17 60.6984 33.8212 60.6984C33.3271 60.6984 32.7748 60.5215 32.1935 60.1679C31.6122 59.7995 31.0018 59.269 30.4786 58.6354C29.9118 57.9575 29.4613 57.1913 29.2433 56.5429C29.2433 56.5134 29.2143 56.4987 29.2143 56.4692C29.2143 56.4692 29.2143 56.4545 29.2143 56.4398C28.9817 55.8061 28.6475 55.2314 28.3568 54.7599L28.2696 54.6273C27.8045 53.861 27.3395 53.0801 27.0779 52.2107C26.7727 51.1497 26.8018 50.1035 27.1942 48.8951C27.6447 47.451 29.098 46.3901 30.217 45.5944C29.6648 47.1121 28.7056 48.512 28.3568 50.1477C27.979 51.5328 27.9063 53.2274 28.9091 54.4063C29.2142 54.9809 30.435 55.4525 30.8565 55.5114C35.071 55.924 39.1112 54.2 43.0642 52.7853C42.7735 53.0948 42.4828 53.419 42.1922 53.7579C40.9569 55.1578 39.9396 56.4398 39.1693 57.6039C39.0821 57.7365 38.9804 57.8839 38.8932 58.0165C38.6752 58.1933 37.8468 58.8417 36.8441 59.4753L36.8586 59.4458ZM25.0433 51.4297C25.1741 52.8443 25.7263 53.9642 26.2495 54.8778C26.3803 55.1136 26.5111 55.3346 26.6419 55.5556C26.6855 55.6293 26.7291 55.703 26.7727 55.7767C26.7727 55.7767 26.7582 55.7767 26.7437 55.7767C26.1478 55.6588 25.0578 55.3641 24.3457 54.6568C24.3021 54.6126 24.2585 54.5536 24.2004 54.5094C23.7063 53.9347 23.3284 52.8295 23.0959 51.3412C23.0087 50.7371 23.3139 50.0887 23.6191 49.4403C23.9243 48.792 24.2149 48.1878 24.1277 47.5984C24.0405 47.0237 23.6045 46.449 23.154 45.8449C22.6744 45.1965 22.1658 44.5187 22.0931 43.885C21.9187 42.3378 21.9332 41.1 22.1512 40.2159C22.3402 39.4201 22.9796 38.5507 23.9679 37.6961C24.3748 37.3424 24.8108 37.3866 25.334 37.4456C25.7845 37.4898 26.2931 37.534 26.7291 37.2687C26.889 37.1803 27.0343 37.0624 27.1651 36.9445C27.6592 36.5172 27.9935 35.5447 28.3423 34.5279C28.5603 33.8943 28.7928 33.2312 29.0253 32.8628C29.6212 31.8902 30.3187 30.8587 31.3797 29.9451C31.5976 29.7683 31.8156 29.5915 32.0627 29.4146C32.6586 29.0021 33.3271 28.781 34.1119 28.7663C35.289 28.7221 36.4517 29.1494 37.2365 29.5031C37.6724 29.6946 38.0357 29.9009 38.2828 30.0483C38.3555 31.2271 38.588 32.3765 38.9223 33.4817C33.0219 31.0503 28.3859 30.623 29.6938 39.8033C29.9409 40.8642 30.5077 41.8073 30.7402 42.8241C30.5222 42.9862 30.2897 43.1482 30.0572 43.3398C29.8392 43.5166 29.5485 43.7377 29.2143 43.9734C27.9354 44.9018 26.017 46.3017 25.3921 48.291C25.0433 49.3667 24.927 50.4276 25.0142 51.4149L25.0433 51.4297ZM40.2302 35.6625L40.2884 35.692C40.3029 35.692 40.3174 35.692 40.332 35.7068C40.3465 35.7068 40.361 35.7068 40.3901 35.7215C40.3901 35.7215 40.4192 35.7215 40.4773 35.751C40.5209 35.751 40.579 35.7804 40.6372 35.7952C40.4918 35.9573 40.2738 35.8246 40.2157 35.6625H40.2302ZM40.2738 36.1046C40.2738 36.1046 40.2738 36.1046 40.2593 36.1046C40.2593 36.1046 40.2593 36.1046 40.2738 36.1046ZM40.1285 29.5178C40.1285 29.5031 40.1285 29.4883 40.1285 29.4736C40.143 28.8842 40.0994 28.3095 40.2012 27.7348C40.2593 27.3369 40.3029 26.9391 40.3465 26.5559C43.5002 28.3242 47.3804 30.3135 49.5749 33.1428C50.694 34.8079 51.0573 36.9003 51.3625 38.9339C48.4268 36.6204 44.4303 35.4268 41.2185 34.4542C40.5645 32.9217 40.1866 31.2566 40.1285 29.5325V29.5178ZM40.143 24.3161C38.5008 23.5646 38.3846 26.3938 38.2974 27.9263C37.8178 27.6906 37.3382 27.4843 36.8586 27.3222C35.8703 26.998 34.9257 26.8506 34.0683 26.8654C32.9202 26.8949 31.8883 27.2338 31.0163 27.8527C30.7257 28.059 30.4496 28.28 30.188 28.501C28.9236 29.5915 28.0952 30.8145 27.4558 31.8608C27.1506 32.3765 26.889 33.1575 26.6274 33.909C26.4385 34.4837 26.1478 35.3531 25.9734 35.5005C25.9153 35.5594 25.8571 35.5889 25.799 35.6331C25.581 35.7657 25.2613 35.751 24.8834 35.7215C24.2731 35.6773 23.5028 35.6331 22.7761 36.252C22.718 36.3109 22.6454 36.3699 22.5872 36.4288C22.4274 36.1046 22.2094 35.6183 22.0495 34.9847C21.6716 33.4669 21.8025 31.9639 22.4274 30.5198C22.907 29.4294 23.6045 28.4863 24.5056 27.7053C24.9852 27.278 26.7 27.5727 27.7028 27.8969C28.1388 28.0442 28.7637 28.0737 29.2288 27.7495C29.4613 27.5874 29.752 27.2632 29.781 26.6738C29.9264 23.9477 30.3914 23.2846 31.4378 22.3858C31.6994 22.1647 31.9465 21.9584 32.1499 21.8111C32.3388 21.6637 32.4987 21.5606 32.6004 21.5164C33.8648 20.9122 35.4198 20.647 36.8441 20.7796C38.2392 20.9122 39.4455 21.4279 40.143 22.1942C40.6226 22.7099 41.2911 23.2846 42.0469 23.9625L42.9043 24.7287C43.7036 25.4508 44.6919 26.3644 45.6074 27.3664C43.8199 26.2465 41.887 25.2003 40.143 24.3309V24.3161ZM40.361 59.1953C40.361 59.1953 40.361 59.1659 40.3756 59.1511C40.3756 59.1364 40.4046 59.1069 40.4192 59.0922C40.4192 59.0922 40.4337 59.0627 40.4482 59.0627C40.5354 58.9301 40.6226 58.7827 40.7244 58.6501C42.0178 56.7345 43.8053 54.7304 45.0842 53.3895C45.7818 52.6527 46.4067 52.0191 46.8573 51.5917C46.9445 51.5033 47.2206 51.1792 47.9763 50.2361C48.6012 49.4551 49.6331 48.1878 50.2434 47.451C50.2725 47.9226 50.2434 48.4825 50.1417 49.1014C49.9382 50.6487 49.4005 52.5496 48.6739 54.3031C48.3251 55.1578 47.9327 55.9682 47.5403 56.6313C47.1479 57.2944 46.7555 57.8397 46.4067 58.1786C46.3631 58.2228 46.305 58.2817 46.2469 58.3259C45.7818 58.7238 45.0552 59.1217 44.1541 59.4458C42.788 59.9468 41.233 60.271 40.1576 60.4479C39.9686 60.4773 39.7797 60.5068 39.6053 60.5363C39.8088 60.1237 40.0558 59.6669 40.3465 59.1953H40.361ZM46.3195 49.4698C44.6628 50.3687 42.8171 50.9286 40.9859 51.5475C38.3845 52.2106 28.3859 56.6608 30.1734 50.6339C30.6821 48.7773 31.4814 46.9353 32.0482 45.0639C32.2952 44.1208 32.7312 43.1482 32.4842 41.9547C32.3243 41.3505 31.9901 40.9526 31.8302 40.5695C31.2925 38.8307 31.2779 36.7825 31.6267 35.0142C31.7575 34.4984 31.8302 34.2479 32.1644 34.1006C34.6496 33.4522 37.498 34.9552 39.8088 35.9131C39.9105 35.9573 39.9832 36.0162 40.2448 36.0899C40.2012 36.0899 40.114 36.0604 40.114 36.0604C40.143 36.0899 40.2738 36.1046 40.3029 36.1341C40.3029 36.1341 40.2884 36.1194 40.2738 36.1194C40.3756 36.1636 40.4773 36.1783 40.5354 36.2078C40.6953 36.2372 41.1313 36.4141 41.2911 36.4435C41.9451 36.6204 43.6309 37.2687 44.2994 37.4898C46.7119 38.5655 49.6912 39.5675 51.3479 41.6747C52.2199 42.8683 51.0282 44.0029 50.6504 45.167C49.7348 45.8449 46.9881 48.6594 46.2905 49.4698H46.3195Z" fill="#4D4D4D"/>
</svg>
