<svg width="526" height="526" viewBox="0 0 526 526" fill="none" xmlns="http://www.w3.org/2000/svg">
<path d="M183.16 223.659C182.396 222.814 181.592 222.033 180.78 221.291C182.806 219.522 184.666 217.513 186.455 215.138L186.518 215.066C186.613 214.954 186.739 214.811 186.636 214.643C186.589 214.572 186.494 214.492 186.305 214.54C185.903 214.635 184.91 215.664 183.176 217.465C182.049 218.637 180.89 219.841 180.015 220.614C161.611 204.871 131.904 214.643 127.482 239.801C126.103 247.628 127.711 255.926 131.928 262.638C131.928 263.013 132.306 263.38 132.716 263.18C136.255 261.53 138.336 258.294 141.229 256.046C142.947 254.866 144.846 253.463 146.872 252.953C152.192 251.606 157.781 252.228 163.219 252.642C162.486 253.503 161.777 254.38 161.075 255.265C159.767 255.416 158.537 255.903 157.442 256.612C154.226 256.923 151.026 255.887 147.968 254.938L147.865 255.185C150.403 256.325 153.185 257.664 156.031 257.736C155.81 257.943 155.605 258.158 155.408 258.382L149.583 259.091C149.371 259.115 149.394 259.442 149.599 259.442C149.694 259.442 154.383 259.482 155.518 259.482C155.652 259.521 155.802 259.506 155.936 259.426C156.062 259.37 156.149 259.274 156.204 259.155C156.661 258.565 157.197 258.015 157.796 257.553C157.891 257.529 157.978 257.505 158.056 257.465L158.119 257.441C158.119 257.441 158.119 257.433 158.119 257.425C158.269 257.345 158.38 257.242 158.411 257.106C159.026 256.708 159.688 256.397 160.382 256.182C160.208 256.405 160.035 256.62 159.861 256.851C159.854 256.859 159.846 256.875 159.838 256.883C159.617 257.162 160.051 257.505 160.263 257.234C161.682 255.624 163.156 254.061 164.669 252.563C164.693 252.547 164.701 252.515 164.717 252.491C166.506 250.618 168.334 248.72 170.502 247.325C171.062 246.991 171.897 246.52 172.496 246.704C172.26 247.142 172.015 247.581 171.763 248.019C169.808 251.239 167.389 254.221 165.127 257.21C164.953 257.417 165.261 257.688 165.442 257.497C168.082 254.731 170.455 251.726 172.52 248.497C172.788 248.099 173.048 247.692 173.3 247.27C173.395 247.11 173.497 246.967 173.592 246.807C173.71 246.624 173.647 246.401 173.513 246.21C174.482 245.412 175.507 244.671 176.587 244.081C177.359 243.683 178.423 243.18 179.314 243.276C179.338 243.276 179.361 243.276 179.385 243.276C179.503 243.292 179.621 243.332 179.732 243.372C179.755 243.38 179.787 243.388 179.811 243.396C179.826 243.396 179.834 243.412 179.85 243.42C178.25 245.588 176.469 247.668 174.648 249.725C174.593 249.765 174.538 249.805 174.482 249.836C174.474 249.844 174.459 249.852 174.451 249.86C174.348 249.932 174.293 250.036 174.277 250.147C172.212 252.475 170.108 254.779 168.2 257.146C167.964 257.449 168.437 257.816 168.665 257.513C168.681 257.497 168.697 257.473 168.713 257.457C169.635 256.285 170.675 255.161 171.692 254.029C172.685 252.929 173.726 251.797 174.766 250.649C174.829 250.634 174.892 250.61 174.955 250.57C174.955 250.57 174.955 250.57 174.963 250.57C175.539 250.195 176.532 249.526 177.682 248.816C178.455 248.354 179.227 247.907 180.023 247.501C181.214 246.911 182.443 246.297 183.728 246.09C183.949 246.066 184.153 246.058 184.343 246.082C184.287 246.13 184.232 246.178 184.169 246.225C183.286 246.943 182.412 247.676 181.552 248.41C177.548 251.773 173.442 255.297 169.462 258.485C169.43 258.493 169.399 258.501 169.367 258.509C167.743 259.848 166.167 261.498 164.725 263.045C164.086 263.659 163.66 264.36 162.904 264.607C158.246 265.795 153.319 264.001 148.63 265.293C145.264 266.289 141.954 267.549 139.037 269.597C138.943 269.605 138.848 269.629 138.761 269.693C138.044 270.211 137.343 270.777 136.657 271.383C136.428 271.59 136.405 271.949 136.61 272.18C136.72 272.307 136.87 272.371 137.027 272.371C137.161 272.371 137.288 272.323 137.398 272.228C137.965 271.725 138.549 271.255 139.14 270.817C142.135 273.224 145.556 275.089 149.197 276.285C169.343 283.077 190.924 267.517 191.09 246.026C191.287 237.943 188.544 229.725 183.168 223.667L183.16 223.659ZM173.702 256.11C174.719 255.345 175.885 254.412 177.076 253.439C177.115 253.431 177.154 253.423 177.186 253.408C179.148 252.443 183.168 250.339 185.123 252.06C183.964 252.555 182.845 253.137 181.765 253.742C179.811 254.85 178.053 256.022 175.885 256.604C174.427 257.106 172.851 257.553 171.314 257.975C172.433 257.098 173.694 256.11 173.694 256.11H173.702ZM149.489 275.321C146.029 274.197 142.773 272.435 139.904 270.179C142.032 268.736 144.397 267.66 146.856 266.847C150.852 265.197 155.148 265.97 159.349 266.018C160.847 265.994 162.399 265.994 163.794 265.309C164.843 264.519 165.986 263.117 166.908 262.2C167.869 261.211 168.87 260.263 169.919 259.386C171.306 259.027 172.693 258.581 174.057 258.15L176.161 257.449C179.755 256.389 182.75 253.854 186.274 252.69C186.502 252.539 186.565 252.228 186.416 251.997C184.965 249.876 182.467 250.147 180.157 250.96C181.545 249.773 182.932 248.577 184.343 247.421C184.792 247.054 185.241 246.688 185.698 246.337C185.746 246.289 185.769 246.249 185.801 246.202C185.801 246.194 185.817 246.186 185.824 246.17C185.895 246.042 185.911 245.915 185.872 245.795C185.872 245.771 185.864 245.755 185.856 245.731C185.832 245.683 185.809 245.644 185.777 245.596C185.769 245.588 185.769 245.572 185.761 245.564C185.761 245.564 185.761 245.564 185.754 245.564C185.533 245.285 185.123 245.07 184.847 245.038C184.768 245.03 184.689 245.038 184.603 245.022C184.035 244.934 183.405 245.022 182.774 245.221C182.774 245.221 182.766 245.221 182.758 245.221C182.624 245.261 182.49 245.309 182.356 245.357C181.387 245.691 180.457 246.202 179.566 246.632C178.699 247.102 177.856 247.604 177.028 248.123C178.345 246.648 179.653 245.149 180.89 243.595C181.04 243.412 181.024 243.141 180.859 242.973C180.835 242.949 180.804 242.933 180.78 242.917C180.685 242.822 180.567 242.742 180.441 242.67C180.417 242.654 180.386 242.638 180.362 242.622C180.244 242.567 180.126 242.519 180.015 242.479C179.937 242.447 179.858 242.423 179.771 242.407C179.716 242.391 179.661 242.375 179.613 242.375C179.606 242.375 179.59 242.375 179.582 242.375C177.351 241.993 174.325 244.217 172.685 245.675C172.204 245.564 171.527 245.691 171.267 245.811C169.942 246.305 168.847 247.198 167.783 248.075C166.482 249.191 165.276 250.394 164.11 251.63C161.249 251.375 158.38 251.152 155.495 251.08C151.057 251 146.21 251.152 142.466 253.862C141.394 254.595 139.699 255.655 138.872 256.612C136.878 258.629 134.978 260.701 132.598 261.953C130.667 258.772 129.272 255.265 128.562 251.598C123.124 221.746 157.15 202.838 178.746 221.642C178.266 222.017 177.777 222.391 177.257 222.766C177.186 222.766 177.107 222.766 177.044 222.798C175.042 223.603 173.024 224.113 171.022 224.32C171.022 224.297 171.022 224.273 171.014 224.257C170.943 223.97 170.77 223.675 170.502 223.356C170.329 223.149 170.116 222.933 169.864 222.71C168.957 221.913 167.862 221.411 166.293 221.068C165.394 220.877 164.425 220.749 163.4 220.622C162.92 220.558 162.423 220.494 161.911 220.423C160.902 220.279 159.877 220.423 158.876 220.845C158.159 221.148 157.457 221.586 156.803 222.152C156.283 222.599 155.968 222.973 155.905 223.045C155.779 223.204 155.755 223.42 155.842 223.595C155.928 223.778 156.125 223.882 156.315 223.874C156.724 223.858 157.158 223.954 157.686 224.193C158.277 224.456 158.908 224.87 159.641 225.341C159.854 225.476 160.074 225.62 160.303 225.763C161.264 226.369 162.431 227.047 163.802 227.509C164.378 227.7 164.961 227.796 165.552 227.796C166.214 227.796 166.884 227.676 167.562 227.429C168.602 227.047 169.43 226.449 169.942 226.01C170.179 225.811 170.344 225.644 170.431 225.548C170.502 225.516 170.589 225.46 170.683 225.381C171.866 225.285 173.048 225.078 174.238 224.783C173.166 225.452 172.102 226.082 171.164 226.632C167.412 228.824 163.345 230.395 160.587 231.335C159.341 231.758 158.096 232.148 156.89 232.483C156.441 232.611 156.078 232.706 155.842 232.762L155.708 232.794C155.589 232.228 155.448 231.67 155.227 231.128C154.998 230.506 154.549 230.004 154.1 229.542C153.847 228.872 153.438 228.194 152.839 227.485C152.232 226.76 151.538 226.122 150.939 225.588L150.49 225.189C150.08 224.831 149.717 224.512 149.505 224.281C148.945 223.683 148.078 223.3 147.077 223.204C146.107 223.109 145.099 223.284 144.239 223.699C144.121 223.754 143.995 223.834 143.837 223.954C143.703 224.057 143.554 224.177 143.396 224.312C142.994 224.655 142.86 225.309 142.734 225.883C142.655 226.249 142.576 226.632 142.45 226.752C142.34 226.863 142.198 226.951 142.04 227.015C141.962 227.047 141.662 227.007 141.441 226.975C140.842 226.895 140.094 226.792 139.636 227.182C139.029 227.708 138.557 228.338 138.241 229.071C137.697 230.331 137.808 231.463 137.997 232.188C138.178 232.89 138.454 233.344 138.541 233.479C138.304 233.806 138.131 234.141 138.044 234.484C137.847 235.289 137.918 236.214 137.989 236.835C138.044 237.322 138.375 237.768 138.675 238.167C138.872 238.43 139.069 238.701 139.1 238.884C139.124 239.035 138.998 239.29 138.88 239.546C138.683 239.952 138.47 240.414 138.549 240.909C138.659 241.61 138.856 242.495 139.376 243.125C139.424 243.18 139.471 243.228 139.518 243.284C139.967 243.722 140.598 244.025 141.394 244.169C141.67 244.217 141.898 244.241 142.08 244.249C142.253 244.623 142.49 245.014 142.789 245.373C143.144 245.795 143.554 246.154 143.964 246.409C144.436 246.704 144.901 246.847 145.351 246.847C145.374 246.847 145.39 246.847 145.406 246.847C145.753 246.831 146.131 246.736 146.588 246.528C146.809 246.433 147.037 246.305 147.282 246.17C147.282 246.194 147.266 246.209 147.266 246.233C147.235 246.393 147.274 246.56 147.384 246.68C147.479 246.791 147.621 246.847 147.763 246.847C147.778 246.847 147.794 246.847 147.802 246.847C147.897 246.847 148.724 246.76 149.702 246.552C150.308 246.425 150.852 246.273 151.317 246.098C151.932 245.867 152.405 245.612 152.76 245.309C152.807 245.269 152.854 245.221 152.902 245.181C153.241 244.846 153.579 244.352 153.911 243.699C154.368 242.814 154.77 241.714 155.022 240.685C155.148 240.151 155.235 239.649 155.266 239.203C155.29 238.804 155.274 238.469 155.219 238.182L155.613 237.441C155.755 237.154 155.913 236.915 156.039 236.596C156.181 236.214 156.149 235.807 156.023 235.424C156.015 234.954 155.944 234.316 155.889 233.806C157.071 233.511 162.817 232.005 168.713 229.103C168.855 229.008 171.479 227.605 171.669 227.517C171.669 227.517 171.684 227.517 171.684 227.509C174.262 226.01 176.973 224.376 179.527 222.336C180.347 223.093 181.143 223.898 181.923 224.767C202.991 248.768 179.621 284.607 149.505 275.297L149.489 275.321ZM161.588 223.316C161.461 223.563 161.556 223.874 161.8 224.01C161.871 224.041 163.495 224.894 166.214 225.277C167.113 225.405 168.043 225.468 168.981 225.468H168.997C168.555 225.811 167.948 226.21 167.207 226.481C166.151 226.863 165.111 226.887 164.11 226.552C162.573 226.042 161.288 225.213 160.161 224.48L159.885 224.305C159.31 223.938 158.695 223.547 158.096 223.276C157.844 223.165 157.599 223.069 157.371 223.005C157.394 222.981 157.418 222.965 157.442 222.941C157.836 222.607 158.474 222.128 159.247 221.802C160.09 221.451 160.925 221.331 161.753 221.443C162.273 221.515 162.77 221.578 163.258 221.642C164.267 221.77 165.221 221.889 166.072 222.073C167.46 222.375 168.421 222.806 169.186 223.483C169.406 223.675 169.58 223.858 169.722 224.018C169.864 224.185 169.942 224.312 169.982 224.408C168.752 224.472 167.531 224.424 166.356 224.257C165.008 224.065 163.96 223.754 163.322 223.523C162.975 223.404 162.707 223.292 162.525 223.212C162.439 223.173 162.368 223.141 162.328 223.117L162.234 223.324L162.273 223.093C162.029 222.957 161.722 223.061 161.588 223.308V223.316ZM146.99 245.157C146.667 245.357 146.368 245.524 146.092 245.636C145.8 245.763 145.532 245.835 145.343 245.835C145.075 245.835 144.775 245.739 144.46 245.548C144.145 245.349 143.814 245.062 143.53 244.719C143.223 244.352 142.978 243.938 142.86 243.587C142.86 243.571 142.844 243.563 142.844 243.547C142.844 243.547 142.844 243.539 142.844 243.531C142.718 243.188 142.537 242.878 142.379 242.622L142.332 242.551C142.08 242.136 141.828 241.714 141.686 241.243C141.52 240.669 141.536 240.104 141.749 239.45C141.993 238.669 142.781 238.095 143.388 237.664C143.089 238.485 142.568 239.243 142.379 240.127C142.174 240.877 142.135 241.793 142.679 242.431C142.844 242.742 143.506 242.997 143.735 243.029C146.021 243.252 148.212 242.32 150.356 241.554C150.198 241.722 150.041 241.897 149.883 242.08C149.213 242.838 148.661 243.531 148.243 244.161C148.196 244.233 148.141 244.312 148.094 244.384C147.975 244.48 147.526 244.83 146.982 245.173L146.99 245.157ZM140.582 240.821C140.653 241.586 140.953 242.192 141.236 242.686C141.307 242.814 141.378 242.933 141.449 243.053C141.473 243.093 141.496 243.133 141.52 243.172C141.52 243.172 141.512 243.172 141.504 243.172C141.181 243.109 140.59 242.949 140.204 242.567C140.18 242.543 140.157 242.511 140.125 242.487C139.857 242.176 139.652 241.578 139.526 240.773C139.479 240.446 139.644 240.096 139.81 239.745C139.975 239.394 140.133 239.067 140.086 238.748C140.038 238.438 139.802 238.127 139.558 237.8C139.297 237.449 139.022 237.082 138.982 236.74C138.888 235.903 138.895 235.233 139.014 234.755C139.116 234.324 139.463 233.854 139.999 233.392C140.22 233.2 140.456 233.224 140.74 233.256C140.984 233.28 141.26 233.304 141.496 233.161C141.583 233.113 141.662 233.049 141.733 232.985C142.001 232.754 142.182 232.228 142.371 231.678C142.49 231.335 142.616 230.976 142.742 230.777C143.065 230.251 143.443 229.693 144.019 229.199C144.137 229.103 144.255 229.008 144.389 228.912C144.712 228.689 145.075 228.569 145.501 228.561C146.139 228.537 146.77 228.768 147.195 228.96C147.432 229.063 147.629 229.175 147.763 229.255C147.802 229.892 147.928 230.514 148.109 231.112C144.909 229.797 142.395 229.566 143.104 234.532C143.238 235.106 143.546 235.616 143.672 236.166C143.554 236.253 143.428 236.341 143.301 236.445C143.183 236.54 143.026 236.66 142.844 236.787C142.151 237.29 141.11 238.047 140.771 239.123C140.582 239.705 140.519 240.279 140.566 240.813L140.582 240.821ZM148.819 232.292L148.85 232.308C148.858 232.308 148.866 232.308 148.874 232.316C148.882 232.316 148.89 232.316 148.906 232.324C148.906 232.324 148.921 232.324 148.953 232.34C148.976 232.34 149.008 232.355 149.04 232.363C148.961 232.451 148.842 232.379 148.811 232.292H148.819ZM148.842 232.531C148.842 232.531 148.842 232.531 148.835 232.531C148.835 232.531 148.835 232.531 148.842 232.531ZM148.764 228.968C148.764 228.96 148.764 228.952 148.764 228.944C148.772 228.625 148.748 228.314 148.803 228.003C148.835 227.788 148.858 227.573 148.882 227.365C150.592 228.322 152.697 229.398 153.887 230.929C154.494 231.829 154.691 232.961 154.856 234.061C153.264 232.81 151.097 232.164 149.355 231.638C149 230.809 148.795 229.908 148.764 228.976V228.968ZM148.772 226.154C147.881 225.747 147.818 227.278 147.771 228.107C147.51 227.979 147.25 227.868 146.99 227.78C146.454 227.605 145.942 227.525 145.477 227.533C144.854 227.549 144.295 227.732 143.822 228.067C143.664 228.179 143.514 228.298 143.372 228.418C142.687 229.008 142.237 229.669 141.891 230.235C141.725 230.514 141.583 230.937 141.441 231.343C141.339 231.654 141.181 232.124 141.087 232.204C141.055 232.236 141.024 232.252 140.992 232.276C140.874 232.347 140.7 232.34 140.495 232.324C140.164 232.3 139.747 232.276 139.353 232.611C139.321 232.642 139.282 232.674 139.25 232.706C139.163 232.531 139.045 232.268 138.959 231.925C138.754 231.104 138.825 230.291 139.163 229.51C139.424 228.92 139.802 228.41 140.291 227.987C140.551 227.756 141.481 227.915 142.025 228.091C142.261 228.171 142.6 228.187 142.852 228.011C142.978 227.923 143.136 227.748 143.152 227.429C143.231 225.955 143.483 225.596 144.05 225.11C144.192 224.99 144.326 224.878 144.436 224.799C144.539 224.719 144.626 224.663 144.681 224.639C145.367 224.312 146.21 224.169 146.982 224.241C147.739 224.312 148.393 224.591 148.772 225.006C149.032 225.285 149.394 225.596 149.804 225.963L150.269 226.377C150.703 226.768 151.239 227.262 151.735 227.804C150.766 227.198 149.717 226.632 148.772 226.162V226.154ZM148.89 245.022C148.89 245.022 148.89 245.006 148.898 244.998C148.898 244.99 148.913 244.974 148.921 244.966C148.921 244.966 148.929 244.95 148.937 244.95C148.984 244.878 149.032 244.799 149.087 244.727C149.788 243.691 150.758 242.606 151.451 241.881C151.83 241.483 152.169 241.14 152.413 240.909C152.46 240.861 152.61 240.685 153.02 240.175C153.359 239.753 153.918 239.067 154.249 238.669C154.265 238.924 154.249 239.227 154.194 239.561C154.084 240.398 153.792 241.427 153.398 242.375C153.209 242.838 152.996 243.276 152.783 243.635C152.571 243.993 152.358 244.288 152.169 244.472C152.145 244.496 152.113 244.528 152.082 244.551C151.83 244.767 151.436 244.982 150.947 245.157C150.206 245.428 149.363 245.604 148.779 245.699C148.677 245.715 148.574 245.731 148.48 245.747C148.59 245.524 148.724 245.277 148.882 245.022H148.89ZM152.121 239.761C151.223 240.247 150.222 240.55 149.229 240.885C147.818 241.243 142.395 243.651 143.365 240.39C143.64 239.386 144.074 238.39 144.381 237.377C144.515 236.867 144.752 236.341 144.618 235.695C144.531 235.369 144.35 235.153 144.263 234.946C143.971 234.006 143.964 232.898 144.153 231.941C144.224 231.662 144.263 231.526 144.444 231.447C145.792 231.096 147.337 231.909 148.59 232.427C148.645 232.451 148.685 232.483 148.827 232.523C148.803 232.523 148.756 232.507 148.756 232.507C148.772 232.523 148.842 232.531 148.858 232.547C148.858 232.547 148.85 232.539 148.842 232.539C148.898 232.563 148.953 232.571 148.984 232.587C149.071 232.603 149.307 232.698 149.394 232.714C149.749 232.81 150.663 233.161 151.026 233.28C152.334 233.862 153.95 234.404 154.848 235.544C155.321 236.19 154.675 236.803 154.47 237.433C153.974 237.8 152.484 239.322 152.106 239.761H152.121Z" fill="#4D4D4D"/>
<path d="M230.335 234.561C230.335 243.288 224.562 247.647 217.345 247.647C210.127 247.647 204.354 243.288 204.354 234.561C204.354 225.835 210.127 221.476 217.345 221.476C224.562 221.476 230.335 225.835 230.335 234.561ZM218.782 246.925C224.555 246.925 226 240.382 226 234.569C226 225.843 220.227 222.206 215.899 222.206C210.127 222.206 208.682 228.749 208.682 234.569C208.682 243.296 214.454 246.933 218.782 246.933V246.925Z" fill="#4D4D4D"/>
<path d="M239.586 220.015V246.917L235.258 247.647V220.015C235.258 214.925 233.091 214.194 231.653 214.194L230.931 213.464C235.258 213.464 239.594 214.917 239.594 220.007L239.586 220.015Z" fill="#4D4D4D"/>
<path d="M250.702 220.015V246.917L246.375 247.647V220.015C246.375 214.925 244.207 214.194 242.77 214.194L242.047 213.464C246.375 213.464 250.71 214.917 250.71 220.007L250.702 220.015Z" fill="#4D4D4D"/>
<path d="M257.412 217.839C257.412 216.632 258.381 215.655 259.58 215.655C260.779 215.655 261.747 216.632 261.747 217.839C261.747 219.046 260.779 220.023 259.58 220.023C258.381 220.023 257.412 219.046 257.412 217.839ZM257.412 222.929L261.74 222.198V246.925L257.412 247.655V222.929Z" fill="#4D4D4D"/>
<path d="M291.524 230.925V246.925L287.197 247.655V230.933C287.197 225.684 285.751 222.206 280.701 222.206C275.651 222.206 272.761 226.573 272.761 230.933V246.932L268.433 247.663V222.937L272.761 222.206V226.859C274.309 223.476 277.724 221.356 281.424 221.475C287.197 221.475 291.524 224.382 291.524 230.925Z" fill="#4D4D4D"/>
<path d="M300.751 214.099C301.156 214.512 301.386 215.068 301.386 215.647C301.386 218.553 299.941 220.737 297.059 220.737V220.006C298.321 220.006 299.036 219.443 299.195 217.823C297.996 217.815 297.035 216.83 297.043 215.623C297.051 214.416 298.027 213.448 299.226 213.456C299.798 213.456 300.354 213.686 300.759 214.099H300.751Z" fill="#4D4D4D"/>
<path d="M327.645 240.382C327.645 246.202 324.032 247.656 316.822 247.656C308.159 247.656 305.999 243.296 305.999 243.296L307.445 241.113C307.445 241.113 310.327 246.933 316.822 246.933C321.872 246.933 323.317 244.027 323.317 240.39C323.317 236.753 320.427 234.57 316.822 233.847C313.987 233.275 305.999 233.117 305.999 228.027C305.999 222.937 310.327 221.484 316.822 221.484C320.427 221.484 324.731 222.238 326.922 223.747L325.525 226.74C323.484 223.945 320.26 222.27 316.814 222.214C312.487 222.214 310.319 224.398 310.319 228.035C310.319 232.061 313.924 232.394 317.537 233.125C320.451 233.712 327.637 235.3 327.645 240.398V240.382Z" fill="#4D4D4D"/>
<path d="M281.09 269.69C281.09 275.511 277.477 276.964 270.268 276.964C261.605 276.964 259.445 272.604 259.445 272.604L260.89 270.421C260.89 270.421 263.772 276.241 270.268 276.241C275.318 276.241 276.763 273.335 276.763 269.698C276.763 266.061 273.873 263.878 270.268 263.155C267.433 262.584 259.445 262.425 259.445 257.335C259.445 252.245 263.772 250.792 270.268 250.792C273.873 250.792 278.176 251.546 280.368 253.055L278.97 256.049C276.93 253.254 273.706 251.578 270.26 251.523C265.932 251.523 263.764 253.706 263.764 257.343C263.764 261.369 267.369 261.702 270.982 262.433C273.896 263.02 281.082 264.608 281.09 269.706V269.69Z" fill="#4D4D4D"/>
<path d="M298.75 275.502C297.765 276.416 296.479 276.932 295.145 276.955C290.095 276.955 287.204 274.049 287.204 267.498V252.229H284.314V251.498H287.204V247.139L291.532 246.409V251.498H297.305V252.229H291.532V268.229C291.532 273.319 292.255 276.225 295.137 276.225C296.582 276.225 297.305 274.041 297.305 274.041L298.75 275.494V275.502Z" fill="#4D4D4D"/>
<path d="M325.859 250.784V276.233L321.531 276.964V271.58C319.983 274.963 316.568 277.083 312.868 276.964C307.095 276.964 302.768 274.057 302.768 267.507V251.507L307.095 250.776V267.499C307.095 272.747 308.541 276.225 313.591 276.225C318.641 276.225 321.531 271.866 321.531 267.499V251.499L325.859 250.768V250.784Z" fill="#4D4D4D"/>
<path d="M357.485 242.78V276.233L353.158 276.963V274.144C350.68 276.058 347.623 277.059 344.495 276.963C337.277 276.963 331.504 272.604 331.504 263.878C331.504 255.151 337.277 250.792 344.495 250.792C347.615 250.704 350.672 251.697 353.158 253.611V243.518L357.485 242.788V242.78ZM345.94 276.233C348.83 276.114 351.506 274.637 353.158 272.239V256.231C350.521 253.396 346.901 251.705 343.057 251.514C337.285 251.514 335.84 258.057 335.84 263.878C335.84 272.604 341.612 276.241 345.94 276.241V276.233Z" fill="#4D4D4D"/>
<path d="M364.266 247.147C364.266 245.94 365.235 244.963 366.434 244.963C367.633 244.963 368.602 245.94 368.602 247.147C368.602 248.354 367.633 249.331 366.434 249.331C365.235 249.331 364.266 248.354 364.266 247.147ZM364.266 252.237L368.594 251.506V276.233L364.266 276.963V252.237Z" fill="#4D4D4D"/>
<path d="M399.323 264.671C399.323 273.398 393.551 277.757 386.333 277.757C379.115 277.757 373.342 273.398 373.342 264.671C373.342 255.945 379.115 251.585 386.333 251.585C393.551 251.585 399.323 255.945 399.323 264.671ZM387.778 277.027C393.551 277.027 394.996 270.484 394.996 264.671C394.996 255.945 389.223 252.308 384.896 252.308C379.123 252.308 377.678 258.851 377.678 264.671C377.678 273.398 383.45 277.035 387.778 277.035V277.027Z" fill="#4D4D4D"/>
<path d="M389.899 308.195V298.158H391.257V306.13L397.968 298.158H399.172V308.195H397.815V300.203L391.123 308.195H389.899Z" fill="#4D4D4D"/>
<path d="M376.736 308.195V298.158H378.094V306.13L384.805 298.158H386.009V308.195H384.652V300.203L377.96 308.195H376.736Z" fill="#4D4D4D"/>
<path d="M363.667 308.195V298.158H365.024V307.01H371.161V298.158H372.519V308.195H363.667ZM372.863 310.623V308.081L373.207 308.195H371.161V307.01H374.144V310.623H372.863Z" fill="#4D4D4D"/>
<path d="M358.553 308.195V304.582L358.802 304.869H355.398C354.111 304.869 353.104 304.588 352.378 304.027C351.651 303.466 351.288 302.651 351.288 301.58C351.288 300.433 351.677 299.579 352.454 299.018C353.232 298.445 354.27 298.158 355.57 298.158H359.796V308.195H358.553ZM351.211 308.195L353.964 304.333H355.379L352.683 308.195H351.211ZM358.553 304.18V298.942L358.802 299.343H355.609C354.678 299.343 353.952 299.522 353.429 299.878C352.919 300.235 352.664 300.815 352.664 301.618C352.664 303.11 353.614 303.855 355.513 303.855H358.802L358.553 304.18Z" fill="#4D4D4D"/>
<path d="M338.156 308.176L338.251 307.01C338.341 307.023 338.424 307.042 338.5 307.067C338.589 307.08 338.666 307.086 338.729 307.086C339.137 307.086 339.462 306.933 339.705 306.628C339.959 306.322 340.151 305.914 340.278 305.404C340.406 304.894 340.495 304.32 340.546 303.683C340.597 303.033 340.641 302.383 340.68 301.733L340.852 298.158H348.213V308.195H346.855V298.942L347.199 299.343H341.731L342.056 298.922L341.903 301.829C341.865 302.695 341.795 303.524 341.693 304.314C341.604 305.104 341.457 305.799 341.253 306.398C341.062 306.997 340.794 307.469 340.45 307.813C340.106 308.144 339.666 308.31 339.131 308.31C338.978 308.31 338.819 308.297 338.653 308.272C338.5 308.246 338.334 308.214 338.156 308.176Z" fill="#4D4D4D"/>
<path d="M326.828 308.195V298.158H328.186V306.13L334.897 298.158H336.101V308.195H334.744V300.203L328.052 308.195H326.828Z" fill="#4D4D4D"/>
<path d="M313.945 308.195V298.158H322.969V308.195H321.612V298.98L321.956 299.343H314.958L315.302 298.98V308.195H313.945Z" fill="#4D4D4D"/>
<path d="M304.418 303.607V302.575H310.25V303.607H304.418ZM305.757 298.062C306.776 298.062 307.688 298.286 308.491 298.732C309.294 299.165 309.925 299.77 310.383 300.548C310.855 301.313 311.091 302.186 311.091 303.167C311.091 304.149 310.855 305.028 310.383 305.806C309.925 306.583 309.294 307.195 308.491 307.641C307.688 308.087 306.776 308.31 305.757 308.31C304.928 308.31 304.157 308.183 303.443 307.928C302.742 307.66 302.149 307.278 301.665 306.781L302.468 305.978C302.901 306.386 303.392 306.692 303.94 306.896C304.488 307.087 305.075 307.182 305.699 307.182C306.489 307.182 307.191 307.01 307.802 306.666C308.427 306.309 308.918 305.831 309.274 305.232C309.631 304.62 309.81 303.932 309.81 303.167C309.81 302.403 309.631 301.721 309.274 301.122C308.918 300.51 308.427 300.032 307.802 299.688C307.191 299.343 306.489 299.171 305.699 299.171C305.075 299.171 304.488 299.273 303.94 299.477C303.392 299.669 302.901 299.968 302.468 300.376L301.665 299.592C302.149 299.082 302.742 298.7 303.443 298.445C304.157 298.19 304.928 298.062 305.757 298.062Z" fill="#4D4D4D"/>
<path d="M284.855 308.195V298.158H286.213V306.131L292.924 298.158H294.128V308.195H292.771V300.204L286.079 308.195H284.855ZM289.406 296.705C288.565 296.705 287.883 296.494 287.36 296.074C286.85 295.64 286.583 295.022 286.557 294.219H287.532C287.545 294.729 287.723 295.131 288.068 295.424C288.412 295.717 288.858 295.863 289.406 295.863C289.954 295.863 290.4 295.717 290.744 295.424C291.101 295.131 291.286 294.729 291.299 294.219H292.274C292.261 295.022 291.993 295.64 291.471 296.074C290.948 296.494 290.26 296.705 289.406 296.705Z" fill="#4D4D4D"/>
<path d="M276.83 308.291C275.862 308.291 274.988 308.075 274.211 307.641C273.446 307.195 272.841 306.59 272.395 305.825C271.949 305.047 271.725 304.162 271.725 303.167C271.725 302.16 271.949 301.275 272.395 300.51C272.841 299.745 273.446 299.146 274.211 298.713C274.976 298.279 275.849 298.062 276.83 298.062C277.824 298.062 278.704 298.279 279.469 298.713C280.246 299.146 280.852 299.745 281.285 300.51C281.731 301.275 281.954 302.16 281.954 303.167C281.954 304.162 281.731 305.047 281.285 305.825C280.852 306.59 280.246 307.195 279.469 307.641C278.691 308.075 277.812 308.291 276.83 308.291ZM276.83 307.087C277.557 307.087 278.201 306.927 278.761 306.609C279.322 306.277 279.762 305.819 280.081 305.232C280.412 304.633 280.578 303.945 280.578 303.167C280.578 302.377 280.412 301.689 280.081 301.102C279.762 300.516 279.322 300.064 278.761 299.745C278.201 299.414 277.563 299.248 276.849 299.248C276.136 299.248 275.498 299.414 274.937 299.745C274.377 300.064 273.931 300.516 273.599 301.102C273.268 301.689 273.102 302.377 273.102 303.167C273.102 303.945 273.268 304.633 273.599 305.232C273.931 305.819 274.377 306.277 274.937 306.609C275.498 306.927 276.129 307.087 276.83 307.087Z" fill="#4D4D4D"/>
<path d="M259.799 308.195V298.158H261.156V302.593H267.485V298.158H268.842V308.195H267.485V303.76H261.156V308.195H259.799Z" fill="#4D4D4D"/>
<path d="M251.873 308.291C251.006 308.291 250.222 308.094 249.521 307.699C248.82 307.291 248.259 306.711 247.839 305.959C247.431 305.194 247.227 304.264 247.227 303.167C247.227 302.071 247.431 301.147 247.839 300.395C248.247 299.63 248.801 299.05 249.502 298.655C250.203 298.26 250.993 298.062 251.873 298.062C252.829 298.062 253.683 298.279 254.435 298.713C255.2 299.133 255.799 299.732 256.232 300.51C256.666 301.275 256.882 302.16 256.882 303.167C256.882 304.187 256.666 305.079 256.232 305.844C255.799 306.609 255.2 307.208 254.435 307.641C253.683 308.075 252.829 308.291 251.873 308.291ZM246.692 311.905V298.158H247.992V301.179L247.858 303.186L248.049 305.213V311.905H246.692ZM251.777 307.087C252.491 307.087 253.128 306.927 253.689 306.609C254.25 306.277 254.696 305.819 255.028 305.232C255.359 304.633 255.525 303.945 255.525 303.167C255.525 302.39 255.359 301.708 255.028 301.122C254.696 300.535 254.25 300.076 253.689 299.745C253.128 299.414 252.491 299.248 251.777 299.248C251.064 299.248 250.42 299.414 249.846 299.745C249.285 300.076 248.839 300.535 248.508 301.122C248.189 301.708 248.03 302.39 248.03 303.167C248.03 303.945 248.189 304.633 248.508 305.232C248.839 305.819 249.285 306.277 249.846 306.609C250.42 306.927 251.064 307.087 251.777 307.087Z" fill="#4D4D4D"/>
<path d="M239.175 308.291C238.13 308.291 237.212 308.075 236.422 307.641C235.631 307.195 235.013 306.59 234.567 305.825C234.121 305.047 233.898 304.162 233.898 303.167C233.898 302.173 234.108 301.294 234.529 300.529C234.962 299.764 235.548 299.165 236.288 298.732C237.04 298.286 237.881 298.062 238.811 298.062C239.755 298.062 240.59 298.279 241.316 298.713C242.055 299.133 242.635 299.732 243.056 300.51C243.477 301.275 243.687 302.16 243.687 303.167C243.687 303.231 243.681 303.301 243.668 303.378C243.668 303.441 243.668 303.511 243.668 303.588H234.93V302.575H242.941L242.406 302.976C242.406 302.25 242.247 301.606 241.928 301.045C241.622 300.472 241.201 300.025 240.666 299.707C240.131 299.388 239.513 299.229 238.811 299.229C238.123 299.229 237.505 299.388 236.957 299.707C236.409 300.025 235.982 300.472 235.676 301.045C235.37 301.619 235.217 302.275 235.217 303.014V303.225C235.217 303.989 235.383 304.665 235.714 305.251C236.058 305.825 236.53 306.277 237.129 306.609C237.741 306.927 238.435 307.087 239.213 307.087C239.825 307.087 240.392 306.978 240.915 306.762C241.45 306.545 241.909 306.214 242.291 305.768L243.056 306.647C242.61 307.182 242.049 307.59 241.373 307.871C240.711 308.151 239.978 308.291 239.175 308.291Z" fill="#4D4D4D"/>
<path d="M227.355 308.31C226.629 308.31 225.909 308.208 225.195 308.004C224.481 307.8 223.85 307.488 223.302 307.067L223.742 306.054C224.226 306.411 224.787 306.685 225.424 306.876C226.062 307.055 226.693 307.144 227.317 307.144C227.942 307.131 228.484 307.042 228.942 306.876C229.401 306.71 229.758 306.481 230.013 306.188C230.268 305.895 230.395 305.563 230.395 305.194C230.395 304.658 230.153 304.244 229.669 303.951C229.185 303.645 228.522 303.492 227.68 303.492H225.96V302.498H227.585C228.082 302.498 228.522 302.434 228.904 302.307C229.287 302.179 229.58 301.994 229.784 301.752C230 301.51 230.109 301.223 230.109 300.892C230.109 300.535 229.981 300.229 229.726 299.974C229.484 299.719 229.146 299.528 228.713 299.401C228.28 299.273 227.789 299.209 227.241 299.209C226.744 299.222 226.227 299.299 225.692 299.439C225.157 299.566 224.628 299.764 224.105 300.031L223.723 298.98C224.309 298.674 224.889 298.445 225.463 298.292C226.049 298.126 226.635 298.043 227.222 298.043C228.025 298.018 228.745 298.113 229.382 298.33C230.032 298.547 230.548 298.859 230.931 299.267C231.313 299.662 231.504 300.14 231.504 300.701C231.504 301.198 231.351 301.631 231.045 302.001C230.74 302.37 230.332 302.657 229.822 302.861C229.312 303.065 228.732 303.167 228.082 303.167L228.139 302.804C229.287 302.804 230.179 303.027 230.816 303.473C231.466 303.919 231.791 304.525 231.791 305.289C231.791 305.888 231.594 306.417 231.198 306.876C230.803 307.322 230.268 307.673 229.592 307.928C228.93 308.183 228.184 308.31 227.355 308.31Z" fill="#4D4D4D"/>
<path d="M219.951 308.196V305.978L219.894 305.615V301.905C219.894 301.051 219.652 300.395 219.168 299.936C218.696 299.477 217.989 299.248 217.045 299.248C216.395 299.248 215.777 299.356 215.191 299.573C214.604 299.79 214.107 300.076 213.699 300.433L213.088 299.42C213.597 298.987 214.209 298.655 214.923 298.426C215.637 298.184 216.389 298.062 217.179 298.062C218.479 298.062 219.48 298.388 220.181 299.038C220.895 299.675 221.252 300.65 221.252 301.963V308.196H219.951ZM216.491 308.291C215.739 308.291 215.082 308.17 214.522 307.928C213.973 307.673 213.553 307.329 213.26 306.896C212.967 306.449 212.82 305.94 212.82 305.366C212.82 304.843 212.941 304.372 213.183 303.951C213.438 303.518 213.846 303.174 214.407 302.919C214.98 302.651 215.745 302.517 216.701 302.517H220.162V303.531H216.739C215.771 303.531 215.095 303.703 214.713 304.047C214.343 304.391 214.158 304.818 214.158 305.328C214.158 305.901 214.381 306.36 214.827 306.704C215.274 307.049 215.898 307.221 216.701 307.221C217.466 307.221 218.122 307.049 218.67 306.704C219.231 306.348 219.639 305.838 219.894 305.175L220.2 306.112C219.945 306.774 219.499 307.303 218.862 307.699C218.237 308.094 217.447 308.291 216.491 308.291Z" fill="#4D4D4D"/>
<path d="M199.803 308.176L199.898 307.01C199.987 307.023 200.07 307.042 200.147 307.067C200.236 307.08 200.313 307.086 200.376 307.086C200.784 307.086 201.109 306.933 201.351 306.628C201.606 306.322 201.797 305.914 201.925 305.404C202.052 304.894 202.142 304.32 202.193 303.683C202.244 303.033 202.288 302.383 202.326 301.733L202.498 298.158H209.859V308.195H208.502V298.942L208.846 299.343H203.378L203.703 298.922L203.55 301.829C203.512 302.695 203.442 303.524 203.34 304.314C203.251 305.104 203.104 305.799 202.9 306.398C202.709 306.997 202.441 307.469 202.097 307.813C201.753 308.144 201.313 308.31 200.778 308.31C200.625 308.31 200.465 308.297 200.3 308.272C200.147 308.246 199.981 308.214 199.803 308.176Z" fill="#4D4D4D"/>
<path d="M191.521 308.195V304.582L191.77 304.869H188.366C187.079 304.869 186.072 304.588 185.346 304.027C184.619 303.466 184.256 302.651 184.256 301.58C184.256 300.433 184.645 299.579 185.422 299.018C186.2 298.445 187.238 298.158 188.539 298.158H192.764V308.195H191.521ZM184.179 308.195L186.932 304.333H188.347L185.652 308.195H184.179ZM191.521 304.18V298.942L191.77 299.343H188.577C187.646 299.343 186.92 299.522 186.397 299.878C185.887 300.235 185.632 300.815 185.632 301.618C185.632 303.11 186.582 303.855 188.481 303.855H191.77L191.521 304.18Z" fill="#4D4D4D"/>
<path d="M171.876 308.195V298.158H173.234V306.13L179.945 298.158H181.149V308.195H179.792V300.203L173.1 308.195H171.876Z" fill="#4D4D4D"/>
<path d="M166.306 307.545V299.343H161.469L161.354 301.58C161.328 302.256 161.284 302.918 161.22 303.568C161.169 304.219 161.073 304.818 160.933 305.366C160.806 305.901 160.621 306.341 160.379 306.685C160.137 307.016 159.824 307.207 159.442 307.258L158.084 307.01C158.48 307.023 158.805 306.882 159.06 306.589C159.314 306.283 159.512 305.869 159.652 305.347C159.792 304.824 159.894 304.231 159.958 303.568C160.022 302.893 160.073 302.205 160.111 301.504L160.245 298.158H167.663V307.545H166.306ZM157.664 310.623V307.01H169.231V310.623H167.95V308.195H158.945V310.623H157.664Z" fill="#4D4D4D"/>
<path d="M149.363 312C148.891 312 148.439 311.924 148.006 311.771C147.585 311.618 147.222 311.388 146.916 311.082L147.547 310.069C147.802 310.311 148.076 310.496 148.369 310.623C148.675 310.764 149.012 310.834 149.382 310.834C149.828 310.834 150.211 310.706 150.529 310.451C150.861 310.209 151.173 309.776 151.466 309.151L152.116 307.679L152.269 307.469L156.399 298.158H157.737L152.709 309.4C152.428 310.05 152.116 310.566 151.772 310.948C151.441 311.331 151.077 311.599 150.682 311.751C150.287 311.917 149.847 312 149.363 312ZM152.04 308.482L147.413 298.158H148.828L152.919 307.373L152.04 308.482Z" fill="#4D4D4D"/>
<path d="M142.066 308.195V298.98L142.41 299.343H138.261V298.158H147.228V299.343H143.079L143.424 298.98V308.195H142.066Z" fill="#4D4D4D"/>
<path d="M133.774 308.291C132.78 308.291 131.887 308.075 131.097 307.641C130.32 307.195 129.708 306.59 129.262 305.825C128.816 305.047 128.593 304.162 128.593 303.167C128.593 302.16 128.816 301.275 129.262 300.51C129.708 299.745 130.32 299.146 131.097 298.713C131.887 298.279 132.78 298.062 133.774 298.062C134.628 298.062 135.399 298.228 136.087 298.56C136.776 298.891 137.317 299.388 137.712 300.051L136.699 300.739C136.355 300.229 135.928 299.853 135.418 299.611C134.908 299.369 134.354 299.248 133.755 299.248C133.041 299.248 132.397 299.414 131.824 299.745C131.25 300.064 130.798 300.516 130.466 301.102C130.135 301.689 129.969 302.377 129.969 303.167C129.969 303.958 130.135 304.646 130.466 305.232C130.798 305.819 131.25 306.277 131.824 306.609C132.397 306.927 133.041 307.087 133.755 307.087C134.354 307.087 134.908 306.966 135.418 306.724C135.928 306.481 136.355 306.112 136.699 305.615L137.712 306.303C137.317 306.953 136.776 307.45 136.087 307.794C135.399 308.126 134.628 308.291 133.774 308.291Z" fill="#4D4D4D"/>
</svg>
